# xmcd
#
# Track frame offsets: 
#        150
#        19107
#        37450
#        55108
#        71596
#        88511
#        107935
#        130454
#        148555
#        163940
#        182722
#        203839
#
# Disc length: 3034 seconds
#
# Revision: 18
# Processed by: cddbd v1.5.2PL0 Copyright (c) Steve Scherf et al.
# Submitted via: ExactAudioCopy v1.3
#
DISCID=b40bd80c
DTITLE=Ed Sheeran - X
DYEAR=2014
DGENRE=Country
TTITLE0=One
TTITLE1=I'm a Mess
TTITLE2=Sing
TTITLE3=Don't
TTITLE4=Nina
TTITLE5=Photograph
TTITLE6=Bloodstream
TTITLE7=Tenerife Sea
TTITLE8=Runaway
TTITLE9=The Man
TTITLE10=Thinking Out loud
TTITLE11=Afire Love
EXTD=YEAR: 2014
EXTT0=
EXTT1=
EXTT2=
EXTT3=
EXTT4=
EXTT5=
EXTT6=
EXTT7=
EXTT8=
EXTT9=
EXTT10=
EXTT11=
PLAYORDER=
